<?xml version="1.0" encoding="utf-8"?>
<!-- Generator: Adobe Illustrator 26.0.3, SVG Export Plug-In . SVG Version: 6.00 Build 0)  -->
<svg version="1.0" id="katman_1" xmlns="http://www.w3.org/2000/svg" xmlns:xlink="http://www.w3.org/1999/xlink" x="0px" y="0px"
	 viewBox="0 0 150.4 108.7" style="enable-background:new 0 0 150.4 108.7;" xml:space="preserve">
<style type="text/css">
	.st0{fill:#FFFFFF;}
	.st1{fill:#4000BF;}
	.st2{fill-rule:evenodd;clip-rule:evenodd;fill:url(#SVGID_1_);}
	.st3{fill:#253551;}
</style>
<path class="st0" d="M30.2,69.5c8.4,0,15.2-6.8,15.2-15.2c0-8.4-6.8-15.2-15.2-15.2c-8.4,0-15.2,6.8-15.2,15.2
	C15,62.7,21.8,69.5,30.2,69.5z"/>
<path class="st1" d="M30.2,38.3c-8.8,0-16,7.2-16,16c0,8.8,7.2,16,16,16c8.8,0,16-7.2,16-16C46.2,45.5,39.1,38.3,30.2,38.3z
	 M30.2,40c7.9,0,14.4,6.4,14.4,14.4c0,7.9-6.4,14.4-14.4,14.4c-7.9,0-14.4-6.4-14.4-14.4C15.8,46.4,22.3,40,30.2,40z"/>
<linearGradient id="SVGID_1_" gradientUnits="userSpaceOnUse" x1="30.4031" y1="44.9434" x2="30.4031" y2="67.7231" gradientTransform="matrix(1 0 0 -1 0 110.6667)">
	<stop  offset="0" style="stop-color:#7400E1"/>
	<stop  offset="1" style="stop-color:#4000BF"/>
</linearGradient>
<path class="st2" d="M30.4,42.9c6.3,0,11.4,5.1,11.4,11.4c0,6.3-5.1,11.4-11.4,11.4c-6.3,0-11.4-5.1-11.4-11.4c0-1.5,0.3-3,0.9-4.3
	c0.8,1.1,2.1,1.8,3.6,1.8c2.4,0,4.4-2,4.4-4.4c0-1.5-0.7-2.8-1.8-3.6C27.4,43.2,28.9,42.9,30.4,42.9z"/>
<path class="st3" d="M61.6,47.2h-2v13.1h2V47.2z M66.3,54.5c0-1.6,1-2.5,2.3-2.5c1.3,0,2.1,0.9,2.1,2.3v6h1.9v-6.2
	c0-2.4-1.3-3.7-3.3-3.7c-1.5,0-2.4,0.7-2.9,1.7h-0.1v-1.6h-1.8v9.8h1.9V54.5z M82.5,52.9c-0.4-1.5-1.6-2.5-3.7-2.5
	c-2.2,0-3.8,1.2-3.8,2.9c0,1.4,0.8,2.3,2.7,2.7l1.7,0.4c0.9,0.2,1.4,0.6,1.4,1.2c0,0.8-0.8,1.4-2.1,1.4c-1.1,0-1.9-0.5-2.1-1.5
	l-1.8,0.3c0.3,1.7,1.8,2.7,4,2.7c2.4,0,4-1.3,4-3c0-1.4-0.9-2.2-2.7-2.7l-1.6-0.4c-1.1-0.3-1.5-0.6-1.5-1.3c0-0.8,0.8-1.3,1.9-1.3
	c1.2,0,1.7,0.7,2,1.3L82.5,52.9z M88.9,60.5c2.8,0,4.6-2,4.6-5.1c0-3.1-1.8-5.1-4.6-5.1c-2.8,0-4.6,2-4.6,5.1
	C84.3,58.5,86.1,60.5,88.9,60.5z M88.9,58.9c-1.8,0-2.7-1.6-2.7-3.5c0-1.9,0.8-3.5,2.7-3.5c1.8,0,2.6,1.6,2.6,3.5
	C91.5,57.3,90.7,58.9,88.9,58.9z M95.6,60.3h1.9v-6.1c0-1.3,0.9-2.2,2-2.2c1.1,0,1.8,0.7,1.8,1.8v6.5h1.9v-6.3c0-1.2,0.7-2,2-2
	c1,0,1.8,0.6,1.8,1.9v6.4h1.9v-6.6c0-2.2-1.3-3.4-3-3.4c-1.4,0-2.5,0.7-2.9,1.7h-0.1c-0.4-1.1-1.3-1.7-2.6-1.7
	c-1.3,0-2.3,0.6-2.7,1.7h-0.1v-1.6h-1.8V60.3z M113.4,54.5c0-1.6,1-2.5,2.3-2.5c1.3,0,2.1,0.9,2.1,2.3v6h1.9v-6.2
	c0-2.4-1.3-3.7-3.3-3.7c-1.5,0-2.4,0.7-2.9,1.7h-0.1v-1.6h-1.8v9.8h1.9V54.5z M122.3,60.3h1.9v-9.8h-1.9V60.3z M123.2,49
	c0.7,0,1.2-0.5,1.2-1.1s-0.6-1.1-1.2-1.1c-0.7,0-1.2,0.5-1.2,1.1S122.6,49,123.2,49z M129.6,60.6c1.6,0,2.5-0.8,2.9-1.6h0.1v1.3h1.9
	v-6.5c0-2.9-2.2-3.4-3.8-3.4c-1.8,0-3.4,0.7-4.1,2.5l1.8,0.4c0.3-0.7,1-1.4,2.3-1.4c1.2,0,1.9,0.6,1.9,1.8v0c0,0.7-0.7,0.7-2.5,0.9
	c-1.9,0.2-3.8,0.7-3.8,2.9C126.3,59.5,127.8,60.6,129.6,60.6z M130,59c-1.1,0-1.9-0.5-1.9-1.4c0-1,0.9-1.4,2-1.5
	c0.6-0.1,2.1-0.2,2.4-0.5v1.3C132.6,58,131.6,59,130,59z"/>
</svg>
